<?xml version="1.0" standalone="no"?>
<!DOCTYPE svg PUBLIC "-//W3C//DTD SVG 20010904//EN"
 "http://www.w3.org/TR/2001/REC-SVG-20010904/DTD/svg10.dtd">
<svg version="1.0" xmlns="http://www.w3.org/2000/svg"
 width="700.000000pt" height="700.000000pt" viewBox="0 0 700.000000 700.000000"
 preserveAspectRatio="xMidYMid meet">
<metadata>
Created by potrace 1.11, written by Peter Selinger 2001-2013
</metadata>
<g transform="translate(0.000000,700.000000) scale(0.100000,-0.100000)"
fill="#000000" stroke="none">
<path d="M3380 6994 c-446 -29 -763 -98 -1135 -244 -1105 -436 -1923 -1425
-2144 -2590 -48 -253 -55 -342 -55 -670 0 -337 8 -428 61 -690 253 -1255 1205
-2295 2429 -2654 347 -102 624 -141 999 -141 308 0 510 22 790 86 833 189
1598 709 2087 1419 268 389 450 813 554 1295 l29 130 3 524 3 524 -26 141
c-137 754 -497 1409 -1065 1940 -549 514 -1276 842 -2025 915 -114 11 -423 20
-505 15z m-1264 -935 c22 -15 51 -47 66 -75 15 -27 263 -762 552 -1634 478
-1439 598 -1811 698 -2160 l33 -115 77 -3 77 -3 11 43 c55 202 270 865 730
2250 516 1553 542 1630 578 1667 22 23 53 43 77 50 53 14 646 15 698 0 57 -16
103 -68 116 -131 6 -29 33 -595 61 -1258 100 -2375 139 -3297 145 -3392 l7
-98 -231 0 -231 0 0 58 c0 31 -20 525 -45 1097 -25 572 -65 1526 -90 2120 -25
594 -48 1113 -51 1153 l-6 72 -72 0 -72 0 -337 -1027 c-800 -2440 -935 -2844
-960 -2881 -48 -73 -65 -77 -382 -80 -293 -4 -332 1 -388 40 -15 11 -37 38
-49 61 -11 23 -144 413 -293 867 -226 685 -453 1372 -946 2868 l-51 152 -68 0
-69 0 -5 -42 c-3 -24 -24 -502 -46 -1063 -36 -893 -138 -3386 -140 -3392 0 -2
-101 -3 -225 -3 l-225 0 0 68 c0 37 20 553 45 1147 24 594 67 1631 95 2305 55
1322 51 1273 108 1323 49 44 79 47 433 44 l336 -2 39 -26z"/>
</g>
</svg>
