<svg xmlns="http://www.w3.org/2000/svg" width="61" height="78.4" viewBox="0 0 61 78.4"><style>.st0{fill:#fff}.st1{fill:#29573d}.st2{fill:#3d815c}</style><path class="st0" d="M60.5 30.6c0-16.6-13.4-30-30-30S.5 14 .5 30.6c0 7.1 2.5 13.6 6.6 18.7 7.7 9.7 18.7 23.3 22.3 27.8.3.4.7.6 1.2.6s.9-.2 1.2-.6c3.6-4.5 14.5-18.1 22.3-27.8 3.9-5.1 6.4-11.6 6.4-18.7z"/><path class="st1" d="M61 30.5C61 13.7 47.3 0 30.5 0S0 13.7 0 30.5c0 7.2 2.5 13.8 6.7 19 7.9 9.8 19 23.7 22.6 28.3.3.4.7.6 1.2.6s.9-.2 1.2-.6c3.6-4.5 14.7-18.4 22.6-28.3 4.2-5.2 6.7-11.8 6.7-19zM49.4 46L30.5 69.5 11.8 46.2l-.2-.2c-.1-.1-.1-.2-.2-.2-3.5-4.4-5.3-9.6-5.3-15.2C6.1 17 17 6.1 30.5 6.1S54.9 17 54.9 30.5c0 5.6-1.8 10.9-5.3 15.2-.1.1-.2.2-.2.3z"/><circle class="st2" cx="30.5" cy="28.7" r="10.5"/></svg>